<svg width="11" height="6" viewBox="0 0 11 6" fill="none" xmlns="http://www.w3.org/2000/svg">
<path d="M10.2194 0.279313C10.0417 0.100415 9.80123 0 9.55062 0C9.30001 0 9.05958 0.100415 8.88184 0.279313L5.47628 3.67957L2.11816 0.279313C1.94042 0.100415 1.69999 0 1.44938 0C1.19877 0 0.958337 0.100415 0.780601 0.279313C0.691688 0.368606 0.621116 0.474841 0.572955 0.59189C0.524795 0.708939 0.5 0.834485 0.5 0.961285C0.5 1.08809 0.524795 1.21363 0.572955 1.33068C0.621116 1.44773 0.691688 1.55396 0.780601 1.64326L4.80276 5.71588C4.89095 5.80591 4.99587 5.87736 5.11147 5.92613C5.22706 5.97489 5.35105 6 5.47628 6C5.60151 6 5.7255 5.97489 5.8411 5.92613C5.9567 5.87736 6.06162 5.80591 6.14981 5.71588L10.2194 1.64326C10.3083 1.55396 10.3789 1.44773 10.427 1.33068C10.4752 1.21363 10.5 1.08809 10.5 0.961285C10.5 0.834485 10.4752 0.708939 10.427 0.59189C10.3789 0.474841 10.3083 0.368606 10.2194 0.279313Z" fill="#05111A"/>
</svg>
