<svg width="11" height="6" viewBox="0 0 11 6" fill="none" xmlns="http://www.w3.org/2000/svg">
<path d="M0.780602 5.72069C0.958339 5.89958 1.19877 6 1.44938 6C1.69999 6 1.94042 5.89958 2.11816 5.72069L5.52372 2.32043L8.88184 5.72069C9.05958 5.89959 9.30001 6 9.55062 6C9.80123 6 10.0417 5.89959 10.2194 5.72069C10.3083 5.63139 10.3789 5.52516 10.427 5.40811C10.4752 5.29106 10.5 5.16552 10.5 5.03871C10.5 4.91191 10.4752 4.78637 10.427 4.66932C10.3789 4.55227 10.3083 4.44604 10.2194 4.35674L6.19724 0.284121C6.10905 0.194092 6.00413 0.122635 5.88854 0.0738707C5.77294 0.025106 5.64895 -4.24093e-07 5.52372 -4.35041e-07C5.39849 -4.45988e-07 5.2745 0.025106 5.1589 0.0738707C5.0433 0.122635 4.93838 0.194092 4.85019 0.284121L0.780603 4.35674C0.69169 4.44604 0.621118 4.55227 0.572957 4.66932C0.524797 4.78637 0.5 4.91191 0.5 5.03871C0.5 5.16551 0.524797 5.29106 0.572957 5.40811C0.621118 5.52516 0.69169 5.63139 0.780602 5.72069Z" fill="white"/>
</svg>
